<svg width="40" height="40" viewBox="0 0 40 40" fill="none" xmlns="http://www.w3.org/2000/svg">
<path d="M35.4856 12.1699C35.3029 11.4821 34.9428 10.8544 34.4413 10.3497C33.9397 9.84491 33.3143 9.48078 32.6278 9.29377C30.1072 8.61377 20 8.61377 20 8.61377C20 8.61377 9.89279 8.61377 7.37223 9.29377C6.68567 9.48078 6.06029 9.84491 5.55874 10.3497C5.05719 10.8544 4.69707 11.4821 4.51445 12.1699C3.8389 14.7065 3.8389 19.9999 3.8389 19.9999C3.8389 19.9999 3.8389 25.2932 4.51445 27.8304C4.69707 28.5182 5.05719 29.1459 5.55874 29.6506C6.06029 30.1554 6.68567 30.5195 7.37223 30.7065C9.89279 31.386 20 31.386 20 31.386C20 31.386 30.1072 31.386 32.6278 30.7065C33.3143 30.5195 33.9397 30.1554 34.4413 29.6506C34.9428 29.1459 35.3029 28.5182 35.4856 27.8304C36.1611 25.2932 36.1611 19.9999 36.1611 19.9999C36.1611 19.9999 36.1611 14.7065 35.4856 12.1699Z" fill="#EA5A47"/>
<path d="M16.6945 24.8054L25.1422 19.9999L16.6945 15.1943V24.8054Z" fill="white"/>
<path d="M35.4856 12.1699C35.3029 11.4821 34.9428 10.8544 34.4413 10.3497C33.9397 9.84491 33.3143 9.48078 32.6278 9.29377C30.1072 8.61377 20 8.61377 20 8.61377C20 8.61377 9.89279 8.61377 7.37223 9.29377C6.68567 9.48078 6.06029 9.84491 5.55874 10.3497C5.05719 10.8544 4.69707 11.4821 4.51445 12.1699C3.8389 14.7065 3.8389 19.9999 3.8389 19.9999C3.8389 19.9999 3.8389 25.2932 4.51445 27.8304C4.69707 28.5182 5.05719 29.1459 5.55874 29.6506C6.06029 30.1554 6.68567 30.5195 7.37223 30.7065C9.89279 31.386 20 31.386 20 31.386C20 31.386 30.1072 31.386 32.6278 30.7065C33.3143 30.5195 33.9397 30.1554 34.4413 29.6506C34.9428 29.1459 35.3029 28.5182 35.4856 27.8304C36.1611 25.2932 36.1611 19.9999 36.1611 19.9999C36.1611 19.9999 36.1611 14.7065 35.4856 12.1699Z" stroke="black" stroke-miterlimit="10"/>
<path d="M16.6945 24.8054L25.1422 19.9999L16.6945 15.1943V24.8054Z" stroke="black" stroke-miterlimit="10" stroke-linecap="round" stroke-linejoin="round"/>
</svg>
