<svg width="40" height="40" viewBox="0 0 40 40" fill="none" xmlns="http://www.w3.org/2000/svg">
<path d="M27.9688 5H12.0312C8.148 5 5 8.148 5 12.0312V27.9688C5 31.852 8.148 35 12.0312 35H27.9688C31.852 35 35 31.852 35 27.9688V12.0312C35 8.148 31.852 5 27.9688 5Z" fill="url(#paint0_radial_1445_1703)"/>
<path d="M27.9688 5H12.0312C8.148 5 5 8.148 5 12.0312V27.9688C5 31.852 8.148 35 12.0312 35H27.9688C31.852 35 35 31.852 35 27.9688V12.0312C35 8.148 31.852 5 27.9688 5Z" fill="url(#paint1_radial_1445_1703)"/>
<path d="M20.0011 8.28125C16.8185 8.28125 16.419 8.2952 15.1691 8.35203C13.9215 8.40922 13.0699 8.60668 12.3248 8.89648C11.5539 9.19578 10.9002 9.59621 10.2488 10.2478C9.59691 10.8992 9.19648 11.553 8.89625 12.3235C8.60563 13.0688 8.40793 13.9208 8.3518 15.1678C8.2959 16.4178 8.28125 16.8174 8.28125 20.0001C8.28125 23.1828 8.29531 23.581 8.35203 24.8309C8.40945 26.0785 8.60691 26.9301 8.89648 27.6752C9.19602 28.4461 9.59645 29.0998 10.248 29.7512C10.8992 30.4031 11.553 30.8045 12.3233 31.1037C13.0689 31.3936 13.9207 31.591 15.168 31.6482C16.418 31.705 16.8172 31.719 19.9996 31.719C23.1826 31.719 23.5808 31.705 24.8307 31.6482C26.0783 31.591 26.9308 31.3936 27.6765 31.1037C28.447 30.8045 29.0998 30.4031 29.7509 29.7512C30.4029 29.0998 30.8032 28.4461 31.1035 27.6755C31.3916 26.9301 31.5894 26.0783 31.648 24.8312C31.7041 23.5812 31.7188 23.1828 31.7188 20.0001C31.7188 16.8174 31.7041 16.418 31.648 15.168C31.5894 13.9204 31.3916 13.0689 31.1035 12.3239C30.8032 11.553 30.4029 10.8992 29.7509 10.2478C29.0991 9.59598 28.4472 9.19555 27.6758 8.8966C26.9287 8.60668 26.0766 8.4091 24.8291 8.35203C23.579 8.2952 23.1811 8.28125 19.9974 8.28125H20.0011ZM18.9498 10.3931C19.2618 10.3926 19.61 10.3931 20.0011 10.3931C23.1301 10.3931 23.5009 10.4043 24.7365 10.4605C25.8791 10.5127 26.4992 10.7036 26.9123 10.8641C27.4592 11.0764 27.8491 11.3304 28.259 11.7406C28.6692 12.1508 28.923 12.5414 29.1359 13.0883C29.2964 13.5008 29.4875 14.1209 29.5395 15.2635C29.5957 16.4989 29.6079 16.8699 29.6079 19.9974C29.6079 23.1249 29.5957 23.4961 29.5395 24.7313C29.4873 25.8739 29.2964 26.4941 29.1359 26.9067C28.9236 27.4536 28.6692 27.843 28.259 28.2529C27.8489 28.6631 27.4595 28.9169 26.9123 29.1294C26.4997 29.2905 25.8791 29.4809 24.7365 29.5332C23.5011 29.5893 23.1301 29.6015 20.0011 29.6015C16.8719 29.6015 16.501 29.5893 15.2657 29.5332C14.1232 29.4805 13.503 29.2896 13.0896 29.1291C12.5428 28.9167 12.1521 28.6629 11.7419 28.2527C11.3318 27.8425 11.0779 27.4529 10.865 26.9057C10.7046 26.4931 10.5134 25.873 10.4614 24.7304C10.4053 23.495 10.394 23.124 10.394 19.9945C10.394 16.865 10.4053 16.496 10.4614 15.2606C10.5137 14.118 10.7046 13.4979 10.865 13.0848C11.0775 12.5379 11.3318 12.1473 11.742 11.7371C12.1523 11.327 12.5428 11.073 13.0897 10.8602C13.5028 10.6991 14.1232 10.5086 15.2657 10.4561C16.3468 10.4073 16.7657 10.3926 18.9498 10.3902V10.3931ZM26.2565 12.3389C25.4802 12.3389 24.8503 12.9682 24.8503 13.7446C24.8503 14.521 25.4802 15.1509 26.2565 15.1509C27.0329 15.1509 27.6628 14.521 27.6628 13.7446C27.6628 12.9683 27.0329 12.3384 26.2565 12.3384V12.3389ZM20.0011 13.982C16.6776 13.982 13.983 16.6766 13.983 20.0001C13.983 23.3237 16.6776 26.017 20.0011 26.017C23.3246 26.017 26.0183 23.3237 26.0183 20.0001C26.0183 16.6767 23.3244 13.982 20.0008 13.982H20.0011ZM20.0011 16.0938C22.1584 16.0938 23.9074 17.8426 23.9074 20.0001C23.9074 22.1574 22.1584 23.9064 20.0011 23.9064C17.8438 23.9064 16.0948 22.1574 16.0948 20.0001C16.0948 17.8426 17.8436 16.0938 20.0011 16.0938Z" fill="white"/>
<defs>
<radialGradient id="paint0_radial_1445_1703" cx="0" cy="0" r="1" gradientUnits="userSpaceOnUse" gradientTransform="translate(12.9687 37.3106) rotate(-90) scale(29.7322 27.6533)">
<stop stop-color="#FFDD55"/>
<stop offset="0.1" stop-color="#FFDD55"/>
<stop offset="0.5" stop-color="#FF543E"/>
<stop offset="1" stop-color="#C837AB"/>
</radialGradient>
<radialGradient id="paint1_radial_1445_1703" cx="0" cy="0" r="1" gradientUnits="userSpaceOnUse" gradientTransform="translate(-0.0251172 7.16105) rotate(78.681) scale(13.2905 54.7837)">
<stop stop-color="#3771C8"/>
<stop offset="0.128" stop-color="#3771C8"/>
<stop offset="1" stop-color="#6600FF" stop-opacity="0"/>
</radialGradient>
</defs>
</svg>
