<svg width="40" height="40" viewBox="0 0 40 40" fill="none" xmlns="http://www.w3.org/2000/svg">
<path d="M32.7867 5.00011H7.2131C6.63285 4.99421 6.07396 5.21873 5.65906 5.62441C5.24416 6.03009 5.00713 6.5838 5 7.16403V32.8409C5.00842 33.4203 5.24601 33.9727 5.66077 34.3773C6.07554 34.782 6.63369 35.0058 7.2131 34.9999H32.7867C33.367 35.0045 33.9255 34.7792 34.3402 34.3733C34.7548 33.9673 34.992 33.4138 34.9998 32.8335V7.15665C34.9894 6.57812 34.7511 6.02706 34.3367 5.62324C33.9223 5.21942 33.3653 4.99549 32.7867 5.00011Z" fill="#0076B2"/>
<path d="M9.44104 16.2451H13.8943V30.5737H9.44104V16.2451ZM11.6689 9.11401C12.1797 9.11401 12.6789 9.2655 13.1036 9.54932C13.5283 9.83314 13.8592 10.2365 14.0545 10.7085C14.2499 11.1804 14.3009 11.6997 14.201 12.2006C14.1012 12.7015 13.8551 13.1615 13.4937 13.5225C13.1324 13.8835 12.6721 14.1293 12.1711 14.2286C11.6701 14.3279 11.1509 14.2765 10.6791 14.0807C10.2074 13.8849 9.8043 13.5535 9.52089 13.1286C9.23747 12.7037 9.08646 12.2043 9.08695 11.6935C9.0876 11.0092 9.35991 10.3531 9.84405 9.86938C10.3282 9.3857 10.9845 9.11401 11.6689 9.11401ZM16.6877 16.2451H20.9565V18.2123H21.0155C21.6106 17.0861 23.0614 15.8984 25.2278 15.8984C29.7376 15.8886 30.5737 18.8566 30.5737 22.7049V30.5737H26.1204V23.6024C26.1204 21.9426 26.0909 19.8057 23.8065 19.8057C21.5221 19.8057 21.1336 21.6156 21.1336 23.4942V30.5737H16.6877V16.2451Z" fill="white"/>
</svg>
