<svg width="40" height="40" viewBox="0 0 40 40" fill="none" xmlns="http://www.w3.org/2000/svg">
<rect width="40" height="40" rx="20" transform="matrix(-1 0 0 1 40 0)" fill="#2EA2E0"/>
<path fill-rule="evenodd" clip-rule="evenodd" d="M14.2116 19.0276C13.9582 19.2811 13.8158 19.6249 13.8158 19.9834C13.8158 20.3419 13.9582 20.6857 14.2116 20.9392L21.8597 28.5873C21.9844 28.7164 22.1336 28.8194 22.2985 28.8902C22.4635 28.9611 22.6409 28.9984 22.8204 28.9999C22.9999 29.0015 23.1779 28.9673 23.3441 28.8993C23.5102 28.8313 23.6612 28.731 23.7881 28.604C23.915 28.4771 24.0154 28.3261 24.0834 28.16C24.1514 27.9938 24.1856 27.8158 24.184 27.6363C24.1825 27.4568 24.1452 27.2794 24.0743 27.1144C24.0035 26.9495 23.9005 26.8003 23.7713 26.6756L17.0791 19.9834L23.7713 13.2912C24.0176 13.0362 24.1539 12.6947 24.1508 12.3402C24.1477 11.9857 24.0055 11.6466 23.7549 11.396C23.5042 11.1453 23.1651 11.0031 22.8106 11.0001C22.4562 10.997 22.1147 11.1332 21.8597 11.3795L14.2116 19.0276Z" fill="white"/>
</svg>
