<svg width="40" height="40" viewBox="0 0 40 40" fill="none" xmlns="http://www.w3.org/2000/svg">
<rect width="40" height="40" rx="20" fill="#2EA2E0"/>
<path fill-rule="evenodd" clip-rule="evenodd" d="M25.7884 19.0276C26.0418 19.2811 26.1842 19.6249 26.1842 19.9834C26.1842 20.3419 26.0418 20.6857 25.7884 20.9392L18.1403 28.5873C18.0156 28.7164 17.8664 28.8194 17.7015 28.8902C17.5365 28.9611 17.3591 28.9984 17.1796 28.9999C17.0001 29.0015 16.8221 28.9673 16.6559 28.8993C16.4898 28.8313 16.3388 28.731 16.2119 28.604C16.085 28.4771 15.9846 28.3261 15.9166 28.16C15.8486 27.9938 15.8144 27.8158 15.816 27.6363C15.8175 27.4568 15.8548 27.2794 15.9257 27.1144C15.9965 26.9495 16.0995 26.8003 16.2287 26.6756L22.9209 19.9834L16.2287 13.2912C15.9824 13.0362 15.8461 12.6947 15.8492 12.3402C15.8523 11.9857 15.9945 11.6466 16.2451 11.396C16.4958 11.1453 16.8349 11.0031 17.1894 11.0001C17.5438 10.997 17.8853 11.1332 18.1403 11.3795L25.7884 19.0276Z" fill="white"/>
</svg>
