<svg width="40" height="40" viewBox="0 0 40 40" fill="none" xmlns="http://www.w3.org/2000/svg">
<path d="M33.3447 5H6.65526C5.74109 5 5 5.74109 5 6.65526V33.3447C5 34.2589 5.74109 35 6.65526 35H33.3447C34.2589 35 35 34.2589 35 33.3447V6.65526C35 5.74109 34.2589 5 33.3447 5Z" fill="#3D5A98"/>
<path d="M25.6972 34.9974V23.3802H29.5958L30.1789 18.8529H25.6972V15.9632C25.6972 14.6527 26.0623 13.7579 27.9406 13.7579H30.3386V9.70209C29.1774 9.58129 28.0104 9.52375 26.843 9.52972C23.3905 9.52972 21.0128 11.6336 21.0128 15.5145V18.8529H17.1142V23.3802H21.0128V34.9974H25.6972Z" fill="white"/>
</svg>
